<svg width="182" height="33" viewBox="0 0 182 33" fill="none" xmlns="http://www.w3.org/2000/svg">
<rect x="4.15375" y="8.62512" width="27.6923" height="17.25" fill="#FFC300"/>
<path d="M18 0L36 8.625H0L18 0Z" fill="#FFC300"/>
<path d="M18.44 8.176C21.512 8.176 23.8587 8.86933 25.48 10.256C27.1013 11.6213 27.912 13.7333 27.912 16.592V26H21.192V23.696C20.36 25.4453 18.7067 26.32 16.232 26.32C14.8453 26.32 13.6613 26.0853 12.68 25.616C11.72 25.1253 10.984 24.4747 10.472 23.664C9.98133 22.832 9.736 21.904 9.736 20.88C9.736 19.152 10.3973 17.84 11.72 16.944C13.0427 16.048 15.048 15.6 17.736 15.6H20.648C20.4133 14.2347 19.3147 13.552 17.352 13.552C16.5627 13.552 15.7627 13.68 14.952 13.936C14.1413 14.1707 13.448 14.5013 12.872 14.928L10.568 10.16C11.5707 9.54133 12.776 9.06133 14.184 8.72C15.6133 8.35733 17.032 8.176 18.44 8.176ZM18.408 21.968C18.92 21.968 19.3787 21.8293 19.784 21.552C20.1893 21.2747 20.488 20.8587 20.68 20.304V19.088H18.888C17.416 19.088 16.68 19.5787 16.68 20.56C16.68 20.9653 16.8293 21.3067 17.128 21.584C17.448 21.84 17.8747 21.968 18.408 21.968ZM42.7175 8.176C44.2535 8.176 45.6615 8.54933 46.9415 9.296C48.2428 10.0213 49.2668 11.0773 50.0135 12.464C50.7815 13.8507 51.1655 15.4507 51.1655 17.264C51.1655 19.0773 50.7815 20.6773 50.0135 22.064C49.2668 23.4293 48.2428 24.4853 46.9415 25.232C45.6615 25.9573 44.2535 26.32 42.7175 26.32C40.7762 26.32 39.2935 25.8187 38.2695 24.816V32.208H31.0375V8.496H37.9175V9.936C38.9628 8.76267 40.5628 8.176 42.7175 8.176ZM40.9895 20.688C41.8215 20.688 42.5042 20.3893 43.0375 19.792C43.5708 19.1947 43.8375 18.352 43.8375 17.264C43.8375 16.176 43.5708 15.3333 43.0375 14.736C42.5042 14.1173 41.8215 13.808 40.9895 13.808C40.1575 13.808 39.4748 14.1173 38.9415 14.736C38.4082 15.3333 38.1415 16.176 38.1415 17.264C38.1415 18.352 38.4082 19.1947 38.9415 19.792C39.4748 20.3893 40.1575 20.688 40.9895 20.688ZM60.8463 8.176C63.9183 8.176 66.2649 8.86933 67.8863 10.256C69.5076 11.6213 70.3183 13.7333 70.3183 16.592V26H63.5983V23.696C62.7663 25.4453 61.1129 26.32 58.6383 26.32C57.2516 26.32 56.0676 26.0853 55.0863 25.616C54.1263 25.1253 53.3903 24.4747 52.8783 23.664C52.3876 22.832 52.1423 21.904 52.1423 20.88C52.1423 19.152 52.8036 17.84 54.1263 16.944C55.4489 16.048 57.4543 15.6 60.1423 15.6H63.0543C62.8196 14.2347 61.7209 13.552 59.7583 13.552C58.9689 13.552 58.1689 13.68 57.3583 13.936C56.5476 14.1707 55.8543 14.5013 55.2783 14.928L52.9743 10.16C53.9769 9.54133 55.1823 9.06133 56.5903 8.72C58.0196 8.35733 59.4383 8.176 60.8463 8.176ZM60.8142 21.968C61.3263 21.968 61.7849 21.8293 62.1903 21.552C62.5956 21.2747 62.8943 20.8587 63.0863 20.304V19.088H61.2943C59.8223 19.088 59.0863 19.5787 59.0863 20.56C59.0863 20.9653 59.2356 21.3067 59.5343 21.584C59.8543 21.84 60.2809 21.968 60.8142 21.968ZM96.6118 8.176C98.7238 8.176 100.409 8.82667 101.668 10.128C102.948 11.4293 103.588 13.392 103.588 16.016V26H96.3558V17.264C96.3558 15.2587 95.7051 14.256 94.4038 14.256C93.7211 14.256 93.1664 14.512 92.7398 15.024C92.3344 15.536 92.1318 16.3467 92.1318 17.456V26H84.8998V17.264C84.8998 15.2587 84.2491 14.256 82.9478 14.256C82.2651 14.256 81.7104 14.512 81.2838 15.024C80.8784 15.536 80.6758 16.3467 80.6758 17.456V26H73.4438V8.496H80.3238V10.128C81.6251 8.82667 83.2784 8.176 85.2838 8.176C86.4571 8.176 87.5131 8.4 88.4518 8.848C89.3904 9.27467 90.1584 9.936 90.7558 10.832C91.4598 9.97867 92.3131 9.328 93.3158 8.88C94.3184 8.41067 95.4171 8.176 96.6118 8.176ZM125.662 17.232C125.662 17.3387 125.63 17.904 125.566 18.928H113.406C113.662 19.5893 114.088 20.1013 114.686 20.464C115.283 20.8053 116.03 20.976 116.926 20.976C117.694 20.976 118.334 20.88 118.846 20.688C119.379 20.496 119.955 20.1653 120.574 19.696L124.35 23.504C122.643 25.3813 120.094 26.32 116.702 26.32C114.59 26.32 112.734 25.936 111.134 25.168C109.534 24.3787 108.296 23.2907 107.422 21.904C106.547 20.5173 106.11 18.96 106.11 17.232C106.11 15.4827 106.536 13.9253 107.39 12.56C108.264 11.1733 109.448 10.096 110.942 9.328C112.456 8.56 114.152 8.176 116.03 8.176C117.8 8.176 119.411 8.528 120.862 9.232C122.334 9.936 123.496 10.9707 124.35 12.336C125.224 13.7013 125.662 15.3333 125.662 17.232ZM116.094 13.104C115.347 13.104 114.728 13.3067 114.238 13.712C113.747 14.1173 113.427 14.6933 113.278 15.44H118.91C118.76 14.7147 118.44 14.1493 117.95 13.744C117.459 13.3173 116.84 13.104 116.094 13.104ZM140.104 8.176C142.258 8.176 143.986 8.82667 145.288 10.128C146.61 11.4293 147.272 13.392 147.272 16.016V26H140.04V17.264C140.04 15.2587 139.325 14.256 137.896 14.256C137.085 14.256 136.424 14.544 135.912 15.12C135.421 15.6747 135.176 16.56 135.176 17.776V26H127.944V8.496H134.824V10.224C135.506 9.54133 136.296 9.02933 137.192 8.688C138.088 8.34667 139.058 8.176 140.104 8.176ZM163.309 25.392C162.221 26.0107 160.738 26.32 158.861 26.32C156.407 26.32 154.519 25.7333 153.197 24.56C151.874 23.3653 151.213 21.584 151.213 19.216V14.736H148.812V9.456H151.213V4.56H158.445V9.456H162.029V14.736H158.445V19.152C158.445 19.6853 158.583 20.1013 158.861 20.4C159.138 20.6987 159.501 20.848 159.949 20.848C160.567 20.848 161.111 20.688 161.581 20.368L163.309 25.392ZM171.979 26.32C170.486 26.32 169.014 26.16 167.563 25.84C166.113 25.52 164.939 25.104 164.043 24.592L166.027 19.824C166.838 20.3147 167.798 20.6987 168.907 20.976C170.017 21.2533 171.094 21.392 172.139 21.392C172.971 21.392 173.547 21.328 173.867 21.2C174.209 21.0507 174.379 20.8373 174.379 20.56C174.379 20.2827 174.166 20.0907 173.739 19.984C173.334 19.8773 172.662 19.7707 171.723 19.664C170.294 19.4933 169.078 19.28 168.075 19.024C167.073 18.7467 166.187 18.224 165.419 17.456C164.673 16.688 164.299 15.5893 164.299 14.16C164.299 13.0293 164.641 12.016 165.323 11.12C166.006 10.224 167.019 9.50933 168.363 8.976C169.729 8.44267 171.361 8.176 173.259 8.176C174.582 8.176 175.873 8.304 177.131 8.56C178.411 8.79467 179.499 9.14667 180.395 9.616L178.411 14.384C176.875 13.5307 175.19 13.104 173.355 13.104C171.777 13.104 170.987 13.3813 170.987 13.936C170.987 14.2133 171.201 14.416 171.627 14.544C172.054 14.6507 172.726 14.7573 173.643 14.864C175.073 15.0347 176.278 15.2587 177.259 15.536C178.262 15.8133 179.137 16.336 179.883 17.104C180.651 17.872 181.035 18.9707 181.035 20.4C181.035 21.488 180.694 22.48 180.011 23.376C179.329 24.272 178.305 24.9867 176.939 25.52C175.574 26.0533 173.921 26.32 171.979 26.32Z" fill="white"/>
</svg>
